<svg data-v-423bf9ae="" xmlns="http://www.w3.org/2000/svg" viewBox="0 0 483 90" class="iconLeft"><!----><!----><!----><g data-v-423bf9ae="" id="1452f7fd-7b4c-4f6c-b70b-07e55f376109" fill="#000000" transform="matrix(6.054490506946714,0,0,6.054490506946714,106.67003917467503,4.828457213078728)"><path d="M5.11 10.57C2.86 10.57 1.60 8.93 1.60 6.85C1.60 4.76 2.86 3.12 5.11 3.12C6.64 3.12 7.64 3.85 8.12 4.98L9.23 4.98C8.64 3.29 7.13 2.10 5.03 2.10C2.24 2.10 0.55 4.21 0.55 6.85C0.55 9.48 2.24 11.59 5.03 11.59C7.13 11.59 8.64 10.40 9.23 8.71L8.12 8.71C7.64 9.84 6.64 10.57 5.11 10.57ZM16.67 11.48L16.67 4.48L15.62 4.48L15.62 8.51C15.62 9.77 14.67 10.64 13.51 10.64C12.36 10.64 11.55 9.80 11.55 8.53L11.55 4.48L10.50 4.48L10.50 8.55C10.50 10.54 11.86 11.59 13.30 11.59C14.43 11.59 15.12 11.06 15.62 10.39L15.62 11.48ZM19.54 1.68L18.49 1.68L18.49 11.48L19.54 11.48ZM27.09 7.29C27.09 6.05 27.94 5.32 28.98 5.32C29.96 5.32 30.72 6.10 30.72 7.28L30.72 11.48L31.77 11.48L31.77 7.25C31.77 5.49 30.52 4.37 29.18 4.37C27.79 4.37 27.05 5.31 26.77 5.78C26.32 4.89 25.47 4.37 24.54 4.37C23.41 4.37 22.74 4.98 22.41 5.54L22.41 4.48L21.36 4.48L21.36 11.48L22.41 11.48L22.41 7.29C22.41 6.05 23.27 5.32 24.30 5.32C25.28 5.32 26.04 6.10 26.04 7.28L26.04 11.48L27.09 11.48ZM39.55 11.48L39.55 4.48L38.50 4.48L38.50 8.51C38.50 9.77 37.55 10.64 36.39 10.64C35.24 10.64 34.43 9.80 34.43 8.53L34.43 4.48L33.38 4.48L33.38 8.55C33.38 10.54 34.73 11.59 36.18 11.59C37.31 11.59 38.00 11.06 38.50 10.39L38.50 11.48ZM43.18 11.48L43.18 5.40L44.79 5.40L44.79 4.48L43.18 4.48L43.18 1.97L42.13 1.97L42.13 4.48L40.70 4.48L40.70 5.40L42.13 5.40L42.13 11.48ZM45.93 11.48L46.98 11.48L46.98 4.48L45.93 4.48ZM45.89 1.93L45.89 3.30L47.03 3.30L47.03 1.93ZM53.52 4.48L51.32 10.36L49.11 4.48L47.96 4.48L50.71 11.48L51.94 11.48L54.67 4.48ZM58.69 10.64C57.27 10.64 56.36 9.65 56.21 8.40L62.08 8.40L62.08 7.98C62.08 5.98 60.75 4.37 58.60 4.37C56.46 4.37 55.13 5.98 55.13 7.98C55.13 9.98 56.53 11.59 58.67 11.59C60.34 11.59 61.38 10.72 61.87 9.46L60.72 9.46C60.34 10.16 59.67 10.64 58.69 10.64ZM58.60 5.32C59.95 5.32 60.79 6.23 60.98 7.42L56.22 7.42C56.42 6.23 57.26 5.32 58.60 5.32Z"></path></g><defs data-v-423bf9ae=""><linearGradient data-v-423bf9ae="" gradientTransform="rotate(25)" id="774813bd-0cb3-4cad-bbcd-28b18764cb2a" x1="0%" y1="0%" x2="100%" y2="0%"><stop data-v-423bf9ae="" offset="0%" style="stop-color: rgb(39, 109, 142); stop-opacity: 1;"></stop><stop data-v-423bf9ae="" offset="100%" style="stop-color: rgb(221, 223, 212); stop-opacity: 1;"></stop></linearGradient></defs><g data-v-423bf9ae="" id="6aa162ca-911a-415f-9c97-a8a1f05fdaf2" transform="matrix(2.8125,0,0,2.8125,0,0)" stroke="none" fill="url(#774813bd-0cb3-4cad-bbcd-28b18764cb2a)"><path d="M29.625 1l-3.099 3.172H4.054v23.657h22.472L29.625 31H1V1h28.625M32 0H0v32h32l-5.054-5.172H5.054V5.172h21.893L32 0z"></path><path d="M21.038 10.962v10.076H10.962V10.962h10.076m1-1H9.962v12.076h12.076V9.962z"></path></g><!----></svg>